<svg width="215" height="79" viewBox="0 0 215 79" fill="none" xmlns="http://www.w3.org/2000/svg">
<path d="M1.56671 55.5791L29.1153 13.3611C32.0093 8.92606 37.9326 7.68873 42.3452 10.5975L53.7963 18.1458L27.9455 57.7619L20.9142 53.127C19.3274 52.081 17.1975 52.526 16.1568 54.1208C15.1161 55.7156 15.5588 57.8564 17.1456 58.9024L29.923 67.3251L59.5425 21.9336L65.6726 25.9745C70.1399 28.9193 71.337 34.9734 68.3295 39.4113L43.5391 75.9917H16.7168L4.83031 69.1922C0.0381958 66.451 -1.45723 60.2133 1.56671 55.5791Z" fill="white"/>
<path d="M55.7357 17.3272C54.9241 16.7833 54.7049 15.6812 55.246 14.8655L63.2346 2.82249C63.7757 2.00678 64.8723 1.7864 65.6839 2.33025C66.4955 2.87409 66.7147 3.97623 66.1736 4.79194L58.185 16.8349C57.6439 17.6506 56.5473 17.871 55.7357 17.3272Z" fill="#E1B723"/>
<path d="M59.7898 20.1359C58.7909 19.4665 58.521 18.1101 59.187 17.1061L69.8888 0.973052C70.5547 -0.0308968 71.9044 -0.302141 72.9032 0.36721C73.9021 1.03656 74.172 2.39304 73.506 3.39699L62.8042 19.5301C62.1383 20.534 60.7886 20.8052 59.7898 20.1359Z" fill="#E1B723"/>
<path d="M134.781 47.4918V66.1304C134.781 67.9943 135.237 69.4292 136.15 70.4351C137.062 71.441 138.402 71.9439 140.168 71.9439C141.934 71.9439 143.288 71.441 144.23 70.4351C145.172 69.4292 145.643 67.9943 145.643 66.1304V47.4918H153.193V66.0861C153.193 68.8671 152.604 71.2191 151.427 73.1421C150.249 75.0652 148.66 76.5148 146.658 77.4911C144.686 78.4675 142.478 78.9556 140.035 78.9556C137.592 78.9556 135.399 78.4822 133.456 77.5355C131.543 76.5592 130.027 75.1095 128.909 73.1865C127.79 71.2339 127.231 68.8671 127.231 66.0861V47.4918H134.781Z" fill="#ECBA0A"/>
<path d="M173.507 53.6159C176.392 53.6159 178.688 54.5626 180.395 56.4561C182.132 58.32 183 60.8939 183 64.1778V78.645H175.494V65.1985C175.494 63.5417 175.067 62.2548 174.213 61.3376C173.36 60.4205 172.212 59.9619 170.769 59.9619C169.327 59.9619 168.179 60.4205 167.325 61.3376C166.472 62.2548 166.045 63.5417 166.045 65.1985V78.645H158.495V53.8822H166.045V57.1661C166.81 56.0715 167.841 55.2135 169.136 54.5922C170.431 53.9413 171.888 53.6159 173.507 53.6159Z" fill="#ECBA0A"/>
<path d="M195.797 53.8822V78.645H188.247V53.8822H195.797Z" fill="#ECBA0A"/>
<path d="M215 72.2102V78.645H211.159C208.421 78.645 206.287 77.9793 204.756 76.648C203.226 75.287 202.46 73.083 202.46 70.0357V60.1838H199.458V53.8822H202.46V47.8468H210.011V53.8822H214.956V60.1838H210.011V70.1244C210.011 70.8641 210.187 71.3966 210.541 71.722C210.894 72.0475 211.482 72.2102 212.307 72.2102H215Z" fill="#ECBA0A"/>
<path d="M49.6336 73.4787C50.8117 74.861 52.206 76.0062 53.8166 76.9143C56.2597 78.2752 58.9384 78.9556 61.8525 78.9556C64.7666 78.9556 67.4305 78.2752 69.8442 76.9143C72.2579 75.5533 74.1712 73.6599 75.5842 71.2339C76.9971 68.7783 77.7035 66.0269 77.7035 62.9796C77.7035 59.9324 76.9971 57.1957 75.5842 54.7697C74.2007 52.3438 72.2874 50.4503 69.8442 49.0894C68.9345 48.5765 67.9892 48.1602 67.0084 47.8406L62.8516 53.9743C64.8621 54.1721 66.5012 54.9845 67.769 56.4117C69.2702 58.0389 70.0208 60.2282 70.0208 62.9796C70.0208 65.7015 69.2702 67.8908 67.769 69.5475C66.2972 71.2043 64.3251 72.0327 61.8525 72.0327C59.3505 72.0327 57.3488 71.2191 55.8476 69.5919C55.1201 68.773 54.5724 67.8203 54.2045 66.7338L49.6336 73.4787Z" fill="white"/>
<path d="M95.6356 72.2102V78.645H91.7943C89.0568 78.645 86.9227 77.9793 85.3921 76.648C83.8614 75.2871 83.0961 73.083 83.0961 70.0357V60.1838H80.0937V53.8822H83.0961V47.8468H90.6463V53.8822H95.5915V60.1838H90.6463V70.1245C90.6463 70.8641 90.8229 71.3966 91.1761 71.722C91.5294 72.0475 92.1181 72.2102 92.9423 72.2102H95.6356Z" fill="white"/>
<path fill-rule="evenodd" clip-rule="evenodd" d="M122.933 68.0831C123.022 67.3139 123.066 66.5742 123.066 65.8642C123.066 63.379 122.536 61.2045 121.476 59.3406C120.446 57.4768 119.004 56.0419 117.149 55.036C115.295 54.0301 113.176 53.5272 110.791 53.5272C108.348 53.5272 106.185 54.0449 104.301 55.0804C102.417 56.1159 100.945 57.5951 99.8854 59.5182C98.8551 61.4412 98.34 63.6897 98.34 66.2636C98.34 68.8375 98.8698 71.086 99.9295 73.009C100.989 74.932 102.461 76.4113 104.345 77.4468C106.229 78.4823 108.378 79 110.791 79C112.793 79 114.603 78.6302 116.222 77.8906C117.841 77.1509 119.18 76.1302 120.24 74.8285C121.329 73.5267 122.08 72.0623 122.492 70.4351H114.456C113.72 72.0327 112.41 72.8315 110.526 72.8315C109.261 72.8315 108.186 72.4321 107.303 71.6333C106.449 70.8049 105.964 69.6215 105.846 68.0831H122.933ZM114.014 60.7607C114.897 61.53 115.339 62.5654 115.339 63.8672H105.89C106.096 62.5063 106.626 61.456 107.48 60.7164C108.363 59.9767 109.437 59.6069 110.703 59.6069C112.028 59.6069 113.131 59.9915 114.014 60.7607Z" fill="white"/>
<path d="M195.588 47.7546C195.588 49.844 193.902 51.5378 191.824 51.5378C189.745 51.5378 188.06 49.844 188.06 47.7546C188.06 45.6652 189.745 43.9714 191.824 43.9714C193.902 43.9714 195.588 45.6652 195.588 47.7546Z" fill="white"/>
</svg>
