<svg width="189" height="81" viewBox="0 0 189 81" fill="none" xmlns="http://www.w3.org/2000/svg">
<path fill-rule="evenodd" clip-rule="evenodd" d="M1.18402 60.6251L37.9448 4.57455C40.1319 1.23974 44.6084 0.309365 47.9432 2.49651L64.674 13.4694L34.3976 59.633L26.1626 54.2321C24.3042 53.0133 21.8096 53.5317 20.5907 55.3902C19.3719 57.2486 19.8904 59.7432 21.7488 60.962L29.9838 66.363L36.7137 70.7768L41.1276 64.0469L71.404 17.8833L81.9615 24.8075C85.3377 27.0217 86.2424 31.5739 83.9695 34.9108L52.6608 80.8757H21.2466L3.65046 70.8611C0.0288633 68.7999 -1.10129 64.1096 1.18402 60.6251Z" fill="white"/>
<path fill-rule="evenodd" clip-rule="evenodd" d="M1.18402 60.6251L37.9448 4.57455C40.1319 1.23974 44.6084 0.309365 47.9432 2.49651L64.674 13.4694L34.3976 59.633L26.1626 54.2321C24.3042 53.0133 21.8096 53.5317 20.5907 55.3902C19.3719 57.2486 19.8904 59.7432 21.7488 60.962L29.9838 66.363L36.7137 70.7768L41.1276 64.0469L71.404 17.8833L81.9615 24.8075C85.3377 27.0217 86.2424 31.5739 83.9695 34.9108L52.6608 80.8757H21.2466L3.65046 70.8611C0.0288633 68.7999 -1.10129 64.1096 1.18402 60.6251Z" fill="url(#paint0_linear_104_2)"/>
<rect x="66.9585" y="12.2668" width="13.5529" height="2.66952" rx="1.33476" transform="rotate(-56.3079 66.9585 12.2668)" fill="#E1B723"/>
<rect x="70.8601" y="14.8644" width="17.8652" height="3.28556" rx="1.64278" transform="rotate(-56.3079 70.8601 14.8644)" fill="#E1B723"/>
<path d="M128.244 50.3495V64.3642C128.244 65.7657 128.589 66.8446 129.279 67.601C129.968 68.3573 130.981 68.7355 132.315 68.7355C133.65 68.7355 134.673 68.3573 135.385 67.601C136.097 66.8446 136.453 65.7657 136.453 64.3642V50.3495H142.159V64.3309C142.159 66.4219 141.714 68.1905 140.824 69.6364C139.935 71.0824 138.733 72.1724 137.221 72.9065C135.73 73.6406 134.062 74.0077 132.215 74.0077C130.369 74.0077 128.712 73.6518 127.243 72.9399C125.797 72.2058 124.652 71.1158 123.806 69.6698C122.961 68.2016 122.538 66.4219 122.538 64.3309V50.3495H128.244Z" fill="#ECBA0A"/>
<path d="M157.511 54.9543C159.691 54.9543 161.426 55.6662 162.717 57.0899C164.029 58.4914 164.685 60.4268 164.685 62.896V73.7741H159.013V63.6635C159.013 62.4177 158.69 61.4501 158.045 60.7604C157.4 60.0708 156.532 59.726 155.442 59.726C154.352 59.726 153.485 60.0708 152.84 60.7604C152.194 61.4501 151.872 62.4177 151.872 63.6635V73.7741H146.166V55.1545H151.872V57.6238C152.45 56.8007 153.229 56.1556 154.208 55.6884C155.187 55.199 156.288 54.9543 157.511 54.9543Z" fill="#ECBA0A"/>
<path d="M174.356 55.1545V73.7741H168.65V55.1545H174.356Z" fill="#ECBA0A"/>
<path d="M188.869 68.9357V73.7741H185.966C183.897 73.7741 182.284 73.2736 181.128 72.2725C179.971 71.2492 179.393 69.5919 179.393 67.3006V59.8929H177.123V55.1545H179.393V50.6164H185.099V55.1545H188.836V59.8929H185.099V67.3674C185.099 67.9235 185.232 68.3239 185.499 68.5686C185.766 68.8133 186.211 68.9357 186.834 68.9357H188.869Z" fill="#ECBA0A"/>
<g filter="url(#filter0_d_104_2)">
<path fill-rule="evenodd" clip-rule="evenodd" d="M63.8951 69.8895C64.7854 70.9289 65.8392 71.79 67.0563 72.4728C68.9027 73.4961 70.9271 74.0077 73.1294 74.0077C75.3317 74.0077 77.3449 73.4961 79.1691 72.4728C80.9932 71.4495 82.4392 70.0258 83.507 68.2016C84.5748 66.3552 85.1087 64.2864 85.1087 61.9951C85.1087 59.7038 84.5748 57.6461 83.507 55.8219C82.4614 53.9978 81.0155 52.5741 79.1691 51.5508C78.4816 51.1651 77.7672 50.8521 77.026 50.6118L73.8845 55.2238C75.4039 55.3725 76.6426 55.9835 77.6008 57.0566C78.7353 58.2801 79.3026 59.9263 79.3026 61.9951C79.3026 64.0417 78.7353 65.6879 77.6008 66.9336C76.4885 68.1794 74.998 68.8023 73.1294 68.8023C71.2385 68.8023 69.7258 68.1905 68.5913 66.967C68.0415 66.3512 67.6276 65.6349 67.3495 64.818L63.8951 69.8895ZM98.6607 68.9357V73.7742H95.7576C93.6888 73.7742 92.076 73.2736 90.9192 72.2726C89.7624 71.2493 89.184 69.592 89.184 67.3007V59.8929H86.915V55.1546H89.184V50.6165H94.89V55.1546H98.6273V59.8929H94.89V67.3674C94.89 67.9236 95.0235 68.324 95.2905 68.5687C95.5574 68.8134 96.0023 68.9357 96.6252 68.9357H98.6607ZM119.291 65.8325C119.357 65.2541 119.391 64.6979 119.391 64.1641C119.391 62.2954 118.99 60.6604 118.19 59.2589C117.411 57.8574 116.321 56.7785 114.919 56.0222C113.518 55.2658 111.916 54.8876 110.114 54.8876C108.268 54.8876 106.633 55.2769 105.209 56.0555C103.786 56.8341 102.673 57.9464 101.872 59.3924C101.094 60.8383 100.704 62.529 100.704 64.4644C100.704 66.3997 101.105 68.0904 101.906 69.5364C102.707 70.9823 103.819 72.0946 105.243 72.8732C106.666 73.6518 108.29 74.0411 110.114 74.0411C111.627 74.0411 112.995 73.763 114.219 73.2069C115.442 72.6508 116.454 71.8833 117.255 70.9045C118.078 69.9257 118.646 68.8245 118.957 67.601H112.884C112.328 68.8023 111.338 69.4029 109.914 69.4029C108.958 69.4029 108.146 69.1026 107.478 68.5019C106.833 67.8791 106.466 66.9892 106.377 65.8325H119.291ZM112.55 60.3267C113.218 60.9051 113.551 61.6837 113.551 62.6625H106.41C106.566 61.6392 106.967 60.8495 107.612 60.2933C108.279 59.7372 109.091 59.4591 110.048 59.4591C111.049 59.4591 111.883 59.7483 112.55 60.3267Z" fill="#0C4B3A"/>
</g>
<circle cx="171.354" cy="50.547" r="2.84464" fill="#0C4B3A"/>
<defs>
<filter id="filter0_d_104_2" x="63.0198" y="50.6118" width="57.2463" height="25.1799" filterUnits="userSpaceOnUse" color-interpolation-filters="sRGB">
<feFlood flood-opacity="0" result="BackgroundImageFix"/>
<feColorMatrix in="SourceAlpha" type="matrix" values="0 0 0 0 0 0 0 0 0 0 0 0 0 0 0 0 0 0 127 0" result="hardAlpha"/>
<feOffset dy="0.875275"/>
<feGaussianBlur stdDeviation="0.437637"/>
<feComposite in2="hardAlpha" operator="out"/>
<feColorMatrix type="matrix" values="0 0 0 0 0 0 0 0 0 0 0 0 0 0 0 0 0 0 0.25 0"/>
<feBlend mode="normal" in2="BackgroundImageFix" result="effect1_dropShadow_104_2"/>
<feBlend mode="normal" in="SourceGraphic" in2="effect1_dropShadow_104_2" result="shape"/>
</filter>
<linearGradient id="paint0_linear_104_2" x1="42.6116" y1="1.31287" x2="42.6116" y2="80.8757" gradientUnits="userSpaceOnUse">
<stop stop-color="#50A07E"/>
<stop offset="1" stop-color="#034031"/>
</linearGradient>
</defs>
</svg>
